# xmcd
#
# Track frame offsets:
#	150
#	9706
#	19621
#	28248
#	38521
#	50769
#	62256
#	71812
#	81663
#	93760
#
# Disc length: 1421 seconds
#
# Revision: 1
# Processed by: cddbd v1.5.2PL0 Copyright (c) Steve Scherf et al.
# Submitted via: audiograbber 1.83.01
#
DISCID=7c058b0a
DTITLE=ray sanders - truckin' tunes
DYEAR=2014
DGENRE=country
TTITLE0=Dangerous Curves 
TTITLE1=You Push My Buttons 
TTITLE2=My Girl Drives a Truck 
TTITLE3=Day After Day 
TTITLE4=If I Had Money 
TTITLE5=Another Weekend Spent 
TTITLE6=Love Zone 
TTITLE7=There's a Pill for That 
TTITLE8=The Truck Stops Here
TTITLE9=A Life Changed By Love 
EXTD=
EXTT0=
EXTT1=
EXTT2=
EXTT3=
EXTT4=
EXTT5=
EXTT6=
EXTT7=
EXTT8=
EXTT9=
PLAYORDER=
